<svg width="17" height="16" viewBox="0 0 17 16" fill="none" xmlns="http://www.w3.org/2000/svg">
<path d="M0.462004 15.1374C0.228109 14.8586 0.241947 14.4545 0.4801 14.1925L0.550595 14.1248L11.5625 4.88473C11.8666 4.62957 12.3199 4.66923 12.5751 4.97332C12.809 5.25206 12.7951 5.65623 12.557 5.9182L12.4865 5.98591L1.4746 15.226C1.17052 15.4811 0.717161 15.4415 0.462004 15.1374Z" fill="white"/>
<path d="M3.81101 5.45548C3.41549 5.42173 3.12222 5.07375 3.15596 4.67823C3.18664 4.31867 3.47702 4.0436 3.82672 4.02192L3.93321 4.02318L12.0855 4.71873C12.4461 4.7495 12.7216 5.04145 12.742 5.39221L12.7403 5.499L12.0102 13.6489C11.9748 14.0443 11.6256 14.3361 11.2302 14.3007C10.8708 14.2685 10.597 13.977 10.5768 13.6272L10.5785 13.5207L11.2437 6.08959L3.81101 5.45548Z" fill="white"/>
</svg>
